<?xml version="1.0" encoding="UTF-8" standalone="no"?><!-- Generator: Gravit.io --><svg xmlns="http://www.w3.org/2000/svg" xmlns:xlink="http://www.w3.org/1999/xlink" style="isolation:isolate" viewBox="8.977 11.08 40.046 53.84" width="40.046pt" height="53.84pt"><g><g><path d=" M 23.778 15.479 L 40.468 15.479 C 41.021 15.479 41.468 15.032 41.468 14.479 C 41.468 13.927 41.021 13.479 40.468 13.479 L 23.778 13.479 L 23.778 12.009 L 19.468 14.479 L 23.778 16.979 L 23.778 15.479 Z  M 29.778 20.009 L 25.468 22.479 L 29.778 24.979 L 29.778 23.479 L 46.468 23.479 C 47.021 23.479 47.468 23.032 47.468 22.479 C 47.468 21.927 47.021 21.479 46.468 21.479 L 41.728 21.479 L 29.778 21.479 L 29.778 20.009 Z  M 47.828 51.479 C 48.383 50.382 48.383 49.087 47.828 47.989 L 42.258 38.339 C 41.247 36.55 39.084 35.761 37.158 36.479 L 28.158 39.539 L 22.158 30.009 C 23.298 27.89 23.256 25.331 22.048 23.249 C 21.12 21.642 19.591 20.47 17.798 19.989 C 16.003 19.498 14.085 19.75 12.478 20.689 C 9.765 22.256 8.422 25.435 9.192 28.472 C 9.962 31.509 12.656 33.665 15.788 33.749 L 23.088 47.479 L 18.378 48.599 C 15.028 49.389 13.288 52.349 13.318 55.599 C 13.347 56.389 13.733 57.122 14.367 57.593 C 15.001 58.063 15.815 58.22 16.578 58.019 C 19.517 57.147 22.665 57.31 25.498 58.479 C 27.54 59.535 29.211 61.189 30.288 63.219 C 30.905 64.289 32.054 64.94 33.288 64.919 C 33.864 64.916 34.428 64.764 34.928 64.479 L 46.538 57.779 C 47.399 57.277 48.02 56.447 48.258 55.479 C 48.49 54.609 48.36 53.683 47.898 52.909 C 47.643 52.473 47.617 51.939 47.828 51.479 Z  M 11.588 29.249 C 10.463 27.305 10.773 24.848 12.346 23.244 C 13.92 21.639 16.371 21.282 18.337 22.37 C 20.303 23.458 21.302 25.724 20.778 27.909 L 19.118 25.299 C 18.095 23.774 16.062 23.307 14.475 24.233 C 12.888 25.158 12.294 27.158 13.118 28.799 L 14.578 31.549 C 13.32 31.203 12.246 30.377 11.588 29.249 Z  M 46.328 55.029 C 46.204 55.452 45.921 55.81 45.538 56.029 L 33.928 62.729 C 32.999 63.039 31.991 62.557 31.648 61.639 C 28.398 56.149 21.978 54.499 16.038 56.119 C 15.478 56.269 15.308 55.619 15.288 55.209 C 15.028 50.089 21.288 49.969 24.788 49.139 C 25.089 49.067 25.339 48.86 25.466 48.579 C 25.593 48.297 25.583 47.973 25.438 47.699 L 14.858 27.859 C 14.496 27.155 14.749 26.291 15.432 25.892 C 16.116 25.492 16.993 25.698 17.428 26.359 L 26.848 41.269 C 27.095 41.656 27.573 41.825 28.008 41.679 L 37.828 38.359 C 38.84 37.994 39.968 38.418 40.488 39.359 L 46.058 49.009 C 46.315 49.512 46.315 50.107 46.058 50.609 C 45.515 51.699 45.572 52.992 46.208 54.029 C 46.372 54.336 46.415 54.693 46.328 55.029 Z " fill="rgb(128,0,128)"/></g><g><path d=" M 24.431 14.55 L 41.121 14.55 C 41.673 14.55 42.121 14.102 42.121 13.55 C 42.121 12.998 41.673 12.55 41.121 12.55 L 24.431 12.55 L 24.431 11.08 L 20.121 13.55 L 24.431 16.05 L 24.431 14.55 Z  M 30.431 19.08 L 26.121 21.55 L 30.431 24.05 L 30.431 22.55 L 47.121 22.55 C 47.673 22.55 48.121 22.102 48.121 21.55 C 48.121 20.998 47.673 20.55 47.121 20.55 L 42.38 20.55 L 30.431 20.55 L 30.431 19.08 Z  M 48.481 50.55 C 49.035 49.453 49.035 48.157 48.481 47.06 L 42.911 37.41 C 41.9 35.62 39.737 34.832 37.811 35.55 L 28.811 38.61 L 22.811 29.08 C 23.95 26.961 23.909 24.401 22.701 22.32 C 21.772 20.713 20.244 19.54 18.451 19.06 C 16.656 18.568 14.738 18.821 13.131 19.76 C 10.417 21.326 9.075 24.505 9.845 27.542 C 10.615 30.58 13.309 32.735 16.441 32.82 L 23.741 46.55 L 19.031 47.67 C 15.681 48.46 13.941 51.42 13.971 54.67 C 14 55.459 14.385 56.193 15.019 56.663 C 15.654 57.134 16.467 57.291 17.231 57.09 C 20.169 56.218 23.318 56.38 26.151 57.55 C 28.193 58.606 29.864 60.259 30.941 62.29 C 31.558 63.359 32.706 64.01 33.941 63.99 C 34.516 63.986 35.081 63.835 35.581 63.55 L 47.191 56.85 C 48.052 56.348 48.673 55.518 48.911 54.55 C 49.142 53.68 49.012 52.753 48.551 51.98 C 48.296 51.543 48.269 51.01 48.481 50.55 Z  M 12.241 28.32 C 11.115 26.375 11.425 23.918 12.999 22.314 C 14.573 20.71 17.023 20.353 18.989 21.441 C 20.955 22.529 21.954 24.795 21.431 26.98 L 19.771 24.37 C 18.747 22.845 16.714 22.378 15.128 23.303 C 13.541 24.229 12.947 26.228 13.771 27.87 L 15.231 30.62 C 13.972 30.273 12.899 29.448 12.241 28.32 Z  M 46.981 54.1 C 46.856 54.523 46.573 54.881 46.191 55.1 L 34.581 61.8 C 33.651 62.11 32.644 61.628 32.301 60.71 C 29.051 55.22 22.631 53.57 16.691 55.19 C 16.131 55.34 15.961 54.69 15.941 54.28 C 15.681 49.16 21.941 49.04 25.441 48.21 C 25.741 48.138 25.991 47.931 26.118 47.649 C 26.246 47.368 26.235 47.043 26.091 46.77 L 15.511 26.93 C 15.149 26.226 15.401 25.361 16.085 24.962 C 16.769 24.563 17.646 24.769 18.081 25.43 L 27.501 40.34 C 27.748 40.727 28.226 40.896 28.661 40.75 L 38.481 37.43 C 39.493 37.065 40.62 37.489 41.141 38.43 L 46.711 48.08 C 46.967 48.583 46.967 49.178 46.711 49.68 C 46.168 50.77 46.224 52.062 46.861 53.1 C 47.024 53.407 47.067 53.763 46.981 54.1 Z " fill="rgb(255,255,255)"/></g></g></svg>